<svg xmlns="http://www.w3.org/2000/svg" xmlns:xlink="http://www.w3.org/1999/xlink" preserveAspectRatio="xMidYMid" width="9" height="17" viewBox="0 0 9 17">
  <defs>
    <style>
      .cls-1 {
        fill: #ffffff;
        fill-rule: evenodd;
      }
    </style>
  </defs>
  <path d="M8.661,0.003 L6.502,-0.001 C4.077,-0.001 2.510,1.642 2.510,4.184 L2.510,6.112 L0.339,6.112 C0.152,6.112 0.000,6.268 0.000,6.459 L0.000,9.254 C0.000,9.446 0.152,9.601 0.339,9.601 L2.510,9.601 L2.510,16.653 C2.510,16.845 2.662,17.000 2.849,17.000 L5.681,17.000 C5.868,17.000 6.020,16.845 6.020,16.653 L6.020,9.601 L8.558,9.601 C8.746,9.601 8.897,9.446 8.897,9.254 L8.899,6.459 C8.899,6.367 8.863,6.279 8.799,6.214 C8.735,6.149 8.649,6.112 8.559,6.112 L6.021,6.112 L6.021,4.477 C6.021,3.691 6.204,3.292 7.206,3.292 L8.661,3.292 C8.848,3.292 9.000,3.136 9.000,2.945 L9.000,0.350 C9.000,0.159 8.848,0.003 8.661,0.003 Z" class="cls-1"/>
</svg>
