<svg xmlns="http://www.w3.org/2000/svg" xmlns:xlink="http://www.w3.org/1999/xlink" preserveAspectRatio="xMidYMid" width="23" height="24" viewBox="0 0 23 24">
  <defs>
    <style>
      .cls-1 {
        fill: #ec2864;
        fill-rule: evenodd;
      }
    </style>
  </defs>
  <path d="M22.641,21.859 L16.973,15.918 C18.430,14.172 19.228,11.976 19.228,9.689 C19.228,4.346 14.915,-0.001 9.613,-0.001 C4.311,-0.001 -0.003,4.346 -0.003,9.689 C-0.003,15.032 4.311,19.379 9.613,19.379 C11.603,19.379 13.500,18.774 15.122,17.625 L20.833,23.611 C21.072,23.861 21.393,23.998 21.737,23.998 C22.063,23.998 22.371,23.873 22.606,23.646 C23.104,23.163 23.120,22.361 22.641,21.859 ZM9.613,2.526 C13.532,2.526 16.720,5.740 16.720,9.689 C16.720,13.638 13.532,16.851 9.613,16.851 C5.694,16.851 2.506,13.638 2.506,9.689 C2.506,5.740 5.694,2.526 9.613,2.526 Z" class="cls-1"/>
</svg>
