<svg xmlns="http://www.w3.org/2000/svg" xmlns:xlink="http://www.w3.org/1999/xlink" preserveAspectRatio="xMidYMid" width="17" height="15" viewBox="0 0 17 15">
  <defs>
    <style>
      .cls-1 {
        fill: #000;
        fill-rule: evenodd;
      }
    </style>
  </defs>
  <path d="M-0.009,15.003 L-0.009,13.872 C-0.009,12.478 0.998,11.294 2.441,10.994 C3.898,10.688 5.174,10.137 5.794,9.552 L6.540,10.276 C5.775,11.000 4.335,11.638 2.690,11.984 C1.717,12.186 1.054,12.961 1.054,13.872 L1.054,13.985 L15.932,13.985 L15.932,13.978 C15.932,13.052 15.254,12.261 14.319,12.095 C14.237,12.081 14.153,12.065 14.070,12.048 C12.323,11.681 10.768,10.884 10.062,10.299 L10.757,9.529 C11.264,9.949 12.626,10.703 14.298,11.054 C14.370,11.069 14.441,11.082 14.511,11.095 C15.951,11.349 16.995,12.561 16.995,13.978 L16.995,15.003 L-0.009,15.003 ZM8.227,9.914 C7.051,9.914 5.900,9.216 4.985,7.948 C4.187,6.842 3.711,5.488 3.711,4.326 C3.711,1.935 5.737,-0.010 8.227,-0.010 C10.718,-0.010 12.744,1.935 12.744,4.326 C12.744,5.488 12.268,6.842 11.470,7.948 C10.555,9.216 9.403,9.914 8.227,9.914 ZM8.227,1.007 C6.323,1.007 4.773,2.496 4.773,4.326 C4.773,6.279 6.481,8.896 8.227,8.896 C9.974,8.896 11.681,6.279 11.681,4.326 C11.681,2.496 10.132,1.007 8.227,1.007 Z" class="cls-1"/>
</svg>
