<svg xmlns="http://www.w3.org/2000/svg" xmlns:xlink="http://www.w3.org/1999/xlink" preserveAspectRatio="xMidYMid" width="38.938" height="51.969" viewBox="0 0 38.938 51.969">
  <defs>
    <style>
      .cls-1 {
        fill: #fff;
        fill-rule: evenodd;
      }
    </style>
  </defs>
  <path d="M38.324,34.018 L20.827,51.376 C20.431,51.768 19.937,51.964 19.443,51.964 C18.948,51.964 18.454,51.768 18.059,51.376 L0.561,34.018 C-0.230,33.234 -0.230,32.057 0.561,31.273 C1.352,30.488 2.538,30.488 3.329,31.273 L17.465,45.295 L17.465,13.621 C17.465,12.543 18.355,11.660 19.443,11.660 C20.530,11.660 21.420,12.543 21.420,13.621 L21.420,45.295 L35.556,31.273 C36.347,30.488 37.533,30.488 38.324,31.273 C39.115,32.057 39.115,33.234 38.324,34.018 ZM19.443,6.757 C18.355,6.757 17.465,5.875 17.465,4.796 L17.465,1.952 C17.465,0.873 18.355,-0.009 19.443,-0.009 C20.530,-0.009 21.420,0.873 21.420,1.952 L21.420,4.796 C21.420,5.875 20.530,6.757 19.443,6.757 Z" class="cls-1"/>
</svg>
