<svg xmlns="http://www.w3.org/2000/svg" xmlns:xlink="http://www.w3.org/1999/xlink" preserveAspectRatio="xMidYMid" width="32" height="32" viewBox="0 0 32 32">
  <defs>
    <style>
      .cls-1 {
        fill: #fff;
        fill-rule: evenodd;
      }
    </style>
  </defs>
  <path d="M16.000,31.999 C7.177,31.999 -0.000,24.822 -0.000,15.999 C-0.000,7.176 7.177,-0.001 16.000,-0.001 C24.823,-0.001 32.000,7.176 32.000,15.999 C32.000,24.822 24.823,31.999 16.000,31.999 ZM16.000,1.364 C7.928,1.364 1.365,7.927 1.365,15.999 C1.365,24.071 7.928,30.634 16.000,30.634 C24.072,30.634 30.635,24.071 30.635,15.999 C30.635,7.927 24.072,1.364 16.000,1.364 ZM22.413,16.561 L13.590,22.595 C13.335,22.811 12.591,22.798 12.526,22.034 L12.526,9.965 C12.584,9.201 13.316,9.201 13.590,9.404 L22.413,15.437 C22.955,15.862 22.642,16.423 22.413,16.561 ZM13.891,11.252 L13.891,20.747 L20.820,15.999 L13.891,11.252 Z" class="cls-1"/>
</svg>
