<svg xmlns="http://www.w3.org/2000/svg" xmlns:xlink="http://www.w3.org/1999/xlink" preserveAspectRatio="xMidYMid" width="16" height="16" viewBox="0 0 16 16">
  <defs>
    <style>
      .cls-1 {
        fill: #fff;
        fill-rule: evenodd;
      }
    </style>
  </defs>
  <path d="M11.584,16.000 L4.415,16.000 C1.981,16.000 -0.000,14.019 -0.000,11.584 L-0.000,4.415 C-0.000,1.981 1.981,-0.000 4.415,-0.000 L11.584,-0.000 C14.019,-0.000 16.000,1.981 16.000,4.415 L16.000,11.584 C16.000,14.019 14.019,16.000 11.584,16.000 ZM14.580,4.415 C14.580,2.763 13.236,1.419 11.584,1.419 L4.415,1.419 C2.763,1.419 1.420,2.763 1.420,4.415 L1.420,11.584 C1.420,13.236 2.763,14.580 4.415,14.580 L11.585,14.580 C13.236,14.580 14.580,13.236 14.580,11.584 L14.580,4.415 ZM12.296,4.756 C12.022,4.756 11.753,4.644 11.560,4.451 C11.366,4.257 11.255,3.988 11.255,3.714 C11.255,3.440 11.366,3.171 11.560,2.978 C11.753,2.784 12.022,2.673 12.296,2.673 C12.570,2.673 12.839,2.784 13.032,2.978 C13.226,3.171 13.337,3.440 13.337,3.714 C13.337,3.988 13.226,4.257 13.032,4.451 C12.838,4.644 12.570,4.756 12.296,4.756 ZM8.000,12.123 C5.727,12.123 3.877,10.273 3.877,8.000 C3.877,5.727 5.727,3.877 8.000,3.877 C10.273,3.877 12.123,5.727 12.123,8.000 C12.123,10.273 10.273,12.123 8.000,12.123 ZM8.000,5.297 C6.509,5.297 5.297,6.509 5.297,8.000 C5.297,9.491 6.509,10.703 8.000,10.703 C9.490,10.703 10.703,9.491 10.703,8.000 C10.703,6.509 9.490,5.297 8.000,5.297 Z" class="cls-1"/>
</svg>
