<svg xmlns="http://www.w3.org/2000/svg" xmlns:xlink="http://www.w3.org/1999/xlink" preserveAspectRatio="xMidYMid" width="7.78" height="7.78" viewBox="0 0 7.78 7.78">
  <defs>
    <style>
      .cls-1 {
        fill: #fff;
        fill-rule: evenodd;
      }
    </style>
  </defs>
  <path d="M4.502,3.792 L7.460,0.759 C7.632,0.583 7.632,0.298 7.460,0.122 C7.289,-0.054 7.010,-0.054 6.839,0.122 L3.880,3.155 L0.922,0.122 C0.751,-0.054 0.472,-0.054 0.301,0.122 C0.129,0.298 0.129,0.583 0.301,0.759 L3.259,3.792 L0.119,7.010 C-0.053,7.186 -0.053,7.471 0.119,7.647 C0.205,7.736 0.317,7.779 0.430,7.779 C0.542,7.779 0.655,7.736 0.740,7.647 L3.880,4.429 L7.020,7.647 C7.106,7.736 7.219,7.779 7.331,7.779 C7.443,7.779 7.556,7.736 7.642,7.647 C7.813,7.471 7.813,7.186 7.642,7.010 L4.502,3.792 Z" class="cls-1"/>
</svg>
