<svg xmlns="http://www.w3.org/2000/svg" xmlns:xlink="http://www.w3.org/1999/xlink" preserveAspectRatio="xMidYMid" width="17.25" height="9.875" viewBox="0 0 17.25 9.875">
  <defs>
    <style>
      .cls-1 {
        fill: #ec2864;
        fill-rule: evenodd;
      }
    </style>
  </defs>
  <path d="M17.166,8.908 C17.145,8.863 17.126,8.825 17.108,8.796 C16.808,8.256 16.236,7.594 15.391,6.809 L15.373,6.791 L15.364,6.782 L15.355,6.773 L15.346,6.773 C14.962,6.407 14.720,6.161 14.618,6.035 C14.432,5.796 14.390,5.553 14.492,5.307 C14.564,5.121 14.834,4.729 15.301,4.130 C15.547,3.812 15.741,3.557 15.885,3.366 C16.922,1.987 17.371,1.106 17.234,0.723 L17.180,0.633 C17.144,0.579 17.051,0.530 16.901,0.485 C16.751,0.440 16.560,0.432 16.326,0.462 L13.737,0.480 C13.695,0.465 13.635,0.467 13.557,0.485 C13.479,0.503 13.440,0.512 13.440,0.512 L13.395,0.534 L13.360,0.561 C13.330,0.579 13.297,0.611 13.261,0.656 C13.225,0.701 13.195,0.753 13.171,0.813 C12.889,1.538 12.569,2.212 12.209,2.835 C11.987,3.207 11.784,3.529 11.597,3.802 C11.412,4.075 11.256,4.275 11.130,4.404 C11.004,4.533 10.891,4.636 10.788,4.714 C10.687,4.792 10.609,4.825 10.555,4.813 C10.501,4.801 10.450,4.789 10.402,4.777 C10.318,4.723 10.251,4.650 10.200,4.557 C10.149,4.464 10.114,4.347 10.096,4.206 C10.079,4.065 10.068,3.944 10.065,3.842 C10.062,3.740 10.063,3.596 10.069,3.411 C10.076,3.225 10.079,3.099 10.079,3.033 C10.079,2.805 10.083,2.558 10.092,2.292 C10.101,2.025 10.108,1.814 10.114,1.658 C10.120,1.502 10.123,1.337 10.123,1.163 C10.123,0.990 10.113,0.853 10.092,0.754 C10.071,0.655 10.039,0.559 9.998,0.467 C9.956,0.374 9.894,0.302 9.813,0.251 C9.732,0.200 9.632,0.160 9.512,0.129 C9.195,0.058 8.790,0.019 8.298,0.013 C7.184,0.001 6.468,0.073 6.150,0.228 C6.024,0.294 5.910,0.384 5.808,0.498 C5.701,0.630 5.685,0.702 5.763,0.714 C6.123,0.768 6.378,0.897 6.528,1.100 L6.581,1.208 C6.623,1.286 6.665,1.424 6.707,1.622 C6.749,1.820 6.776,2.038 6.788,2.278 C6.818,2.715 6.818,3.090 6.788,3.401 C6.758,3.713 6.730,3.956 6.703,4.130 C6.676,4.304 6.635,4.444 6.581,4.553 C6.528,4.660 6.491,4.726 6.474,4.750 C6.456,4.774 6.441,4.789 6.429,4.795 C6.351,4.825 6.270,4.840 6.186,4.840 C6.102,4.840 6.000,4.798 5.880,4.714 C5.760,4.630 5.636,4.515 5.507,4.368 C5.378,4.221 5.233,4.016 5.071,3.752 C4.909,3.489 4.742,3.177 4.568,2.817 L4.424,2.557 C4.334,2.389 4.211,2.144 4.055,1.824 C3.899,1.503 3.762,1.193 3.642,0.893 C3.594,0.768 3.522,0.672 3.426,0.606 L3.381,0.579 C3.351,0.555 3.303,0.530 3.237,0.503 C3.171,0.476 3.103,0.456 3.031,0.444 L0.568,0.462 C0.316,0.462 0.145,0.519 0.055,0.633 L0.019,0.687 C0.001,0.716 -0.008,0.765 -0.008,0.831 C-0.008,0.897 0.010,0.977 0.046,1.073 C0.406,1.918 0.797,2.733 1.219,3.518 C1.642,4.304 2.009,4.936 2.320,5.415 C2.632,5.895 2.950,6.347 3.273,6.772 C3.597,7.198 3.811,7.471 3.916,7.590 C4.021,7.711 4.103,7.800 4.163,7.860 L4.388,8.076 C4.532,8.220 4.743,8.392 5.022,8.593 C5.300,8.793 5.609,8.992 5.948,9.186 C6.286,9.381 6.680,9.540 7.130,9.663 C7.579,9.785 8.017,9.835 8.442,9.811 L9.476,9.811 C9.686,9.793 9.845,9.727 9.953,9.613 L9.988,9.568 C10.012,9.532 10.035,9.477 10.056,9.402 C10.077,9.327 10.087,9.245 10.087,9.155 C10.081,8.897 10.101,8.665 10.145,8.458 C10.190,8.252 10.241,8.096 10.298,7.991 C10.356,7.886 10.420,7.797 10.492,7.726 C10.564,7.654 10.615,7.610 10.645,7.595 C10.675,7.580 10.698,7.570 10.716,7.564 C10.860,7.516 11.030,7.562 11.225,7.703 C11.419,7.844 11.602,8.018 11.773,8.225 C11.944,8.431 12.149,8.664 12.389,8.921 C12.628,9.179 12.838,9.371 13.018,9.497 L13.198,9.605 C13.318,9.677 13.474,9.743 13.665,9.802 C13.857,9.862 14.025,9.877 14.169,9.847 L16.470,9.811 C16.697,9.811 16.875,9.774 17.000,9.699 C17.126,9.624 17.201,9.542 17.225,9.452 C17.249,9.362 17.250,9.260 17.229,9.146 C17.208,9.032 17.187,8.953 17.166,8.908 Z" class="cls-1"/>
</svg>
