<svg xmlns="http://www.w3.org/2000/svg" xmlns:xlink="http://www.w3.org/1999/xlink" preserveAspectRatio="xMidYMid" width="17" height="12" viewBox="0 0 17 12">
  <defs>
    <style>
      .cls-1 {
        fill: #ec2864;
        fill-rule: evenodd;
      }
    </style>
  </defs>
  <path d="M16.337,1.030 C15.724,0.298 14.591,-0.000 12.427,-0.000 L4.573,-0.000 C2.360,-0.000 1.207,0.318 0.596,1.096 C-0.000,1.856 -0.000,2.975 -0.000,4.524 L-0.000,7.476 C-0.000,10.476 0.707,12.000 4.573,12.000 L12.427,12.000 C14.303,12.000 15.343,11.736 16.016,11.091 C16.706,10.429 17.000,9.348 17.000,7.476 L17.000,4.524 C17.000,2.890 16.954,1.765 16.337,1.030 ZM10.914,6.407 L7.347,8.277 C7.268,8.319 7.180,8.340 7.093,8.340 C6.995,8.340 6.896,8.313 6.809,8.260 C6.645,8.160 6.545,7.982 6.545,7.790 L6.545,4.062 C6.545,3.870 6.645,3.692 6.809,3.592 C6.972,3.493 7.176,3.486 7.346,3.574 L10.913,5.432 C11.094,5.526 11.208,5.714 11.208,5.919 C11.209,6.124 11.095,6.312 10.914,6.407 Z" class="cls-1"/>
</svg>
